<svg width="44" height="44" viewBox="0 0 44 44" fill="none" xmlns="http://www.w3.org/2000/svg">
<path d="M16.24 34.2C14.16 34.2 12.1867 33.8533 10.32 33.16C8.48 32.44 7.05333 31.52 6.04 30.4L6.96 28.88C7.92 29.8667 9.22667 30.7067 10.88 31.4C12.56 32.0667 14.3333 32.4 16.2 32.4C18.0667 32.4 19.5867 32.16 20.76 31.68C21.96 31.1733 22.84 30.5067 23.4 29.68C23.9867 28.8533 24.28 27.9333 24.28 26.92C24.28 25.72 23.96 24.76 23.32 24.04C22.68 23.32 21.84 22.7467 20.8 22.32C19.76 21.8933 18.6267 21.5333 17.4 21.24C16.1733 20.9467 14.9333 20.64 13.68 20.32C12.4267 19.9733 11.28 19.5333 10.24 19C9.2 18.4667 8.36 17.7467 7.72 16.84C7.10667 15.9067 6.8 14.7067 6.8 13.24C6.8 11.9067 7.14667 10.68 7.84 9.56C8.53333 8.44 9.61333 7.53333 11.08 6.84C12.5467 6.14667 14.4267 5.8 16.72 5.8C18.2667 5.8 19.7867 6.02667 21.28 6.48C22.8 6.93333 24.0933 7.54667 25.16 8.32L24.4 9.96C23.2267 9.16 21.96 8.57333 20.6 8.2C19.2667 7.8 17.9733 7.6 16.72 7.6C14.9333 7.6 13.4533 7.85333 12.28 8.36C11.1067 8.86667 10.24 9.54667 9.68 10.4C9.12 11.2267 8.84 12.16 8.84 13.2C8.84 14.4 9.14667 15.36 9.76 16.08C10.4 16.8 11.24 17.3733 12.28 17.8C13.32 18.2267 14.4667 18.5867 15.72 18.88C16.9733 19.1733 18.2133 19.4933 19.44 19.84C20.6667 20.16 21.8 20.5867 22.84 21.12C23.88 21.6533 24.72 22.3733 25.36 23.28C26 24.1867 26.32 25.36 26.32 26.8C26.32 28.1067 25.96 29.3333 25.24 30.48C24.52 31.6 23.4133 32.5067 21.92 33.2C20.4533 33.8667 18.56 34.2 16.24 34.2Z" fill="url(#paint0_linear_2004_2)"/>
<path d="M17.64 31.92L17.56 29.36L35.4 11H37.88L25.4 23.92L24.24 25.16L17.64 31.92ZM15.88 39V11H17.92V39H15.88ZM36.24 39L23.64 24.6L25.04 23.12L38.72 39H36.24Z" fill="url(#paint1_linear_2004_2)"/>
<defs>
<linearGradient id="paint0_linear_2004_2" x1="1.91667" y1="1.32955" x2="38.0625" y2="29.6489" gradientUnits="userSpaceOnUse">
<stop stop-color="#E5E4E2"/>
<stop offset="1" stop-color="#282828" stop-opacity="0.85"/>
</linearGradient>
<linearGradient id="paint1_linear_2004_2" x1="8.58333" y1="6.32955" x2="45.6412" y2="40.0089" gradientUnits="userSpaceOnUse">
<stop stop-color="#E5E4E2"/>
<stop offset="1" stop-color="#282828" stop-opacity="0.85"/>
</linearGradient>
</defs>
</svg>
